<svg aria-hidden="true" style="width:0;height:0;position:absolute;overflow:hidden" xmlns="http://www.w3.org/2000/svg"><defs><symbol id="icon-vector" viewBox="0 0 26 32"><path stroke-linejoin="round" stroke-linecap="round" stroke-width="6.4" d="M3.542 3.2 20.368 16 3.542 28.8"/></symbol><symbol id="icon-burger" viewBox="0 0 46 32"><path stroke-width="2.286" d="M0 2.286h45.714M0 16h45.714M0 29.714h45.714"/></symbol><symbol id="icon-close" viewBox="0 0 32 32"><path stroke-width="2" d="m2.518 2 26.963 28M2 29.481 30 2.518"/></symbol><symbol id="icon-arrow-right" viewBox="0 0 32 32"><path d="M8 16a1 1 0 0 1 1-1h11.586l-4.294-4.292a1 1 0 1 1 1.416-1.416l6 6a.998.998 0 0 1 0 1.416l-6 6a1 1 0 1 1-1.416-1.416L20.586 17H9a1 1 0 0 1-1-1z"/></symbol><symbol id="icon-arrow-right2" viewBox="0 0 32 32"><path d="m19.414 27.414 10-10a2 2 0 0 0 0-2.828l-10-10a2 2 0 1 0-2.828 2.828L23.172 14H4a2 2 0 1 0 0 4h19.172l-6.586 6.586c-.39.39-.586.902-.586 1.414s.195 1.024.586 1.414a2 2 0 0 0 2.828 0z"/></symbol><symbol id="icon-Group_products" viewBox="0 0 139 32"><path fill="#fff" style="fill:var(--color1,#fff)" d="M85.333 16c0 8.837-7.163 16-16 16s-16-7.163-16-16 7.163-16 16-16 16 7.163 16 16zM32 16c0 8.837-7.163 16-16 16S0 24.837 0 16 7.163 0 16 0s16 7.163 16 16zM138.667 16c0 8.837-7.163 16-16 16s-16-7.163-16-16 7.163-16 16-16 16 7.163 16 16z"/></symbol><symbol id="icon-house-1" viewBox="0 0 32 32"><path fill="#d31342" style="fill:var(--color1,#d31342)" d="M31.6 16.765a1.357 1.357 0 0 0-.122-2.032l-.003-.002L17.174 3.056a1.869 1.869 0 0 0-1.146-.389c-.448 0-.86.157-1.183.419l.004-.003L.5 15.35a1.348 1.348 0 0 0-.07 2.037l.001.001.36.347c.595.581 1.56.651 2.152.155l1.072-.896v13.117c0 .803.701 1.456 1.563 1.456h5.592c.864 0 1.563-.653 1.563-1.456v-9.176h7.133v9.208a1.42 1.42 0 0 0 1.421 1.421l.048-.001h-.002 5.928c.861 0 1.56-.651 1.56-1.456V17.179s.299.24.664.541c.363.299 1.131.059 1.709-.536l.408-.419z"/></symbol><symbol id="icon-dots" viewBox="0 0 256 32"><path fill="#c7133e" style="fill:var(--color1,#c7133e)" d="M144 16c0 8.837-7.163 16-16 16s-16-7.163-16-16 7.163-16 16-16 16 7.163 16 16zM32 16c0 8.837-7.163 16-16 16S0 24.837 0 16 7.163 0 16 0s16 7.163 16 16zM256 16c0 8.837-7.163 16-16 16s-16-7.163-16-16 7.163-16 16-16 16 7.163 16 16z"/></symbol><symbol id="icon-github" viewBox="0 0 32 32"><path d="M32 16c0 8.837-7.163 16-16 16S0 24.837 0 16 7.163 0 16 0s16 7.163 16 16z"/><path fill="#fff" style="fill:var(--color2,#fff)" d="M16 6.588c-5.169 0-9.412 4.242-9.412 9.412 0 4.411 3.095 8.418 7.206 9.412v-3.114a2.307 2.307 0 0 1-1.197-.03c-.556-.164-1.008-.535-1.344-1.1-.214-.361-.593-.752-.988-.723l-.097-1.099c.855-.073 1.595.521 2.034 1.259.195.328.419.52.708.605.278.082.577.043.926-.08.088-.698.407-.959.648-1.326-2.451-.366-3.428-1.666-3.816-2.693-.514-1.363-.238-3.066.671-4.142.018-.021.05-.076.037-.114-.417-1.258.091-2.3.11-2.41.481.142.559-.143 2.088.786l.264.159c.111.066.076.028.186.02a7.984 7.984 0 0 1 1.975-.278 8.016 8.016 0 0 1 2.002.285l.086.009c-.007-.001.023-.005.075-.036 1.911-1.157 1.842-.779 2.354-.946.018.111.519 1.169.107 2.411-.056.171 1.657 1.739.707 4.256-.388 1.027-1.365 2.328-3.816 2.693.314.479.692.734.69 1.722v3.887c4.111-.993 7.206-5 7.206-9.412 0-5.169-4.242-9.412-9.412-9.412z"/></symbol><symbol id="icon-telegram" viewBox="0 0 33 32"><path d="M32.235 16c0 8.837-7.163 16-16 16s-16-7.163-16-16 7.163-16 16-16 16 7.163 16 16z"/><path fill="#fff" style="fill:var(--color2,#fff)" d="m13.102 18.375-.318 4.169c.454 0 .651-.182.887-.401l2.13-1.9 4.414 3.017c.81.421 1.38.199 1.598-.695l2.898-12.673c.257-1.117-.433-1.554-1.222-1.28L6.457 14.698c-1.162.421-1.145 1.026-.198 1.3l4.355 1.264 10.115-5.907c.476-.294.909-.131.553.163L13.1 18.375z"/></symbol><symbol id="icon-facebook" viewBox="0 0 33 32"><path d="M16.471 32c8.837 0 16-7.163 16-16s-7.163-16-16-16-16 7.163-16 16 7.163 16 16 16z"/><path fill="#fff" style="fill:var(--color2,#fff)" d="M20.916 15.981h-2.61v9.618h-3.955v-9.618H12.47v-3.38h1.881v-2.188c0-1.564.739-4.014 3.99-4.014l2.929.012v3.281h-2.125c-.349 0-.839.175-.839.921v1.989h2.955l-.346 3.377z"/><symbol id="icon-burger-1" viewBox="0 0 46 32"><path fill="none" stroke="#d41443" style="stroke:var(--color1,#d41443)" stroke-width="2.286" d="M0 2.286h45.714M0 16h45.714M0 29.714h45.714"/></symbol><symbol id="icon-close-1" viewBox="0 0 32 32"><path fill="none" stroke="#fff" style="stroke:var(--color1,#fff)" stroke-width="2" d="m2.518 2 26.963 28M2 29.481 30 2.518"/></symbol><symbol id="icon-close-2" viewBox="0 0 32 32"><path fill="none" stroke="#fff" style="stroke:var(--color1,#d41443)" stroke-width="2" d="m2.518 2 26.963 28M2 29.481 30 2.518"/></symbol><symbol id="icon-chevron-right" viewBox="0 0 32 32"><path d="M9.292 3.292a.998.998 0 0 1 1.416 0l12 12a.998.998 0 0 1 0 1.416l-12 12a1 1 0 1 1-1.416-1.416L20.586 16 9.292 4.708a.998.998 0 0 1 0-1.416z"/></symbol><symbol id="icon-right-arrow" viewBox="0 0 32 32"><path d="M8.76 24.38 17.14 16 8.76 7.62l3.06-3.04L23.24 16 11.82 27.42l-3.06-3.04z"/></symbol><symbol id="icon-close-btn" viewBox="0 0 32 32"><path d="m26.667 7.303-1.97-1.97-7.808 7.808-7.808-7.808-1.97 1.97 7.808 7.808-7.808 7.808 1.97 1.97 7.808-7.808 7.808 7.808 1.97-1.97-7.808-7.808 7.808-7.808z"/></symbol><symbol id="icon-arrow-r" viewBox="0 0 32 32"><path d="M24.291 14.276 14.705 4.69c-.41-.407-.974-.659-1.598-.659s-1.188.252-1.598.659l-.8.8c-.407.41-.658.974-.658 1.597s.252 1.187.659 1.597L18.024 16l-7.315 7.315c-.407.41-.658.974-.658 1.597s.252 1.187.659 1.597l.8.8c.409.407.974.659 1.598.659s1.188-.252 1.598-.659l9.586-9.587a2.232 2.232 0 0 0 .647-1.729V16a2.233 2.233 0 0 0-.646-1.723z"/></symbol><symbol id="icon-buy-buying" viewBox="0 0 32 32"><path fill="#ff5741" style="fill:var(--color1,#ff5741)" d="M29.212 24.231H2.787a2.5 2.5 0 0 1-2.5-2.5V7.975a2.5 2.5 0 0 1 2.5-2.5h26.431a2.5 2.5 0 0 1 2.5 2.5v13.756a2.509 2.509 0 0 1-2.506 2.5z"/><path fill="#ff908a" style="fill:var(--color2,#ff908a)" d="M1.863 21.731V7.975a2.5 2.5 0 0 1 2.5-2.5H2.788a2.5 2.5 0 0 0-2.5 2.5v13.756a2.5 2.5 0 0 0 2.5 2.5h1.581a2.5 2.5 0 0 1-2.506-2.5z"/><path fill="#f9c04a" style="fill:var(--color3,#f9c04a)" d="M2.819 20.606V9.1c0-.606.487-1.094 1.094-1.094h24.181c.606 0 1.094.488 1.094 1.094v11.506c0 .606-.488 1.094-1.094 1.094H3.913a1.092 1.092 0 0 1-1.094-1.094z"/><path fill="#ffda9f" style="fill:var(--color4,#ffda9f)" d="M4.394 20.606V9.1c0-.606.487-1.094 1.094-1.094H3.913c-.606 0-1.094.488-1.094 1.094v11.506c0 .606.487 1.094 1.094 1.094h1.581c-.606 0-1.1-.488-1.1-1.094z"/><path fill="#133260" style="fill:var(--color5,#133260)" d="M8.644 11.675c0-.169.15-.25.3-.25h1.625c1.113 0 2.025.287 2.025 1.688 0 .831-.338 1.419-.844 1.637.606.25 1.025.694 1.025 1.706v.181c0 1.506-.863 2.044-1.963 2.044H8.949c-.188 0-.3-.119-.3-.25v-6.756zm.643 2.788h1.3c.912 0 1.35-.338 1.35-1.281 0-.912-.575-1.15-1.387-1.15H9.288v2.431zm1.438 3.612c.863 0 1.387-.444 1.387-1.469v-.169c0-1.031-.525-1.406-1.387-1.406H9.287v3.044h1.438zM17.462 11.669c0-.169.156-.238.325-.238.156 0 .325.069.325.238v4.95c0 1.55-.925 2.125-2.081 2.125-1.169 0-2.081-.575-2.081-2.125v-4.95c0-.169.169-.238.325-.238.169 0 .325.069.325.238v4.95c0 1.031.537 1.519 1.431 1.519s1.431-.488 1.431-1.519v-4.95zM21.144 15.906c0-.031 0-.05-.012-.081l-2.056-3.938a.39.39 0 0 1-.05-.181c0-.169.2-.275.356-.275.106 0 .188.063.256.2l1.825 3.619 1.837-3.619c.069-.137.156-.2.256-.2.156 0 .356.106.356.275a.63.63 0 0 1-.038.181l-2.063 3.938a.2.2 0 0 0-.019.081v2.519c0 .169-.156.256-.325.256-.156 0-.325-.087-.325-.256v-2.519z"/><path fill="#43527a" style="fill:var(--color6,#43527a)" d="m31.344 18.863-4.706-2.387a.655.655 0 0 0-.925.4l-1.488 5.063a.657.657 0 0 0 .887.788l1.756-.756 1.775 4.106a.757.757 0 0 0 .994.394l1.294-.556a.757.757 0 0 0 .394-.994l-1.775-4.106 1.756-.756c.512-.231.531-.944.038-1.194z"/><path fill="#5e7296" style="fill:var(--color7,#5e7296)" d="m27.456 16.887-.819-.413a.655.655 0 0 0-.925.4l-1.488 5.063a.657.657 0 0 0 .887.788l.719-.313 1.625-5.525zM27.337 21.75l-.462.212 1.775 4.106a.757.757 0 0 0 .994.394l.531-.231-1.931-4.156a.689.689 0 0 0-.906-.325z"/><path fill="#133260" style="fill:var(--color5,#133260)" d="M32 21.731V7.975a2.79 2.79 0 0 0-2.788-2.787H2.787A2.79 2.79 0 0 0-.001 7.975v13.756a2.79 2.79 0 0 0 2.788 2.788h24.881l.719 1.663a1.048 1.048 0 0 0 .956.631c.137 0 .281-.031.413-.087l1.294-.556a1.048 1.048 0 0 0 .544-1.375l-.45-1.05A2.777 2.777 0 0 0 32 21.733zM2.788 23.95a2.216 2.216 0 0 1-2.212-2.212V7.976a2.21 2.21 0 0 1 2.212-2.219h26.431c1.219 0 2.212.994 2.212 2.213v10.613l-1.962-.994V9.101c0-.762-.619-1.381-1.381-1.381H3.913c-.763 0-1.381.619-1.381 1.381v11.506c0 .762.619 1.381 1.381 1.381h20.012a.927.927 0 0 0 .306.837.92.92 0 0 0 .994.156l1.494-.644.694 1.606H2.788zM28.9 9.1v8.2l-2.131-1.081a.945.945 0 0 0-1.331.575l-1.356 4.625H3.913a.816.816 0 0 1-.813-.813V9.1c0-.444.362-.813.813-.813h24.181c.444 0 .806.369.806.813zm2.169 16.281a.466.466 0 0 1-.25.262l-1.294.556c-.119.05-.244.05-.363.006s-.212-.137-.262-.25l-.794-1.831-.981-2.269a.28.28 0 0 0-.262-.169.247.247 0 0 0-.113.025l-1.756.756c-.137.056-.281.038-.394-.063s-.15-.238-.113-.381l.069-.231v-.006l1.413-4.825c.031-.106.106-.194.206-.238s.219-.038.313.012l2.544 1.288s.006 0 .006.006l2.156 1.094c.131.069.206.194.2.344s-.087.269-.225.331l-1.731.744a.28.28 0 0 0-.144.375l1.238 2.863v.006l.531 1.231c.056.119.056.25.006.363zm-.175-2.2-.962-2.231 1.494-.644c.006 0 .006 0 .012-.006v1.431a2.26 2.26 0 0 1-.544 1.45z"/><symbol id="icon-close-btn" viewBox="0 0 32 32"><path d="m26.667 7.303-1.97-1.97-7.808 7.808-7.808-7.808-1.97 1.97 7.808 7.808-7.808 7.808 1.97 1.97 7.808-7.808 7.808 7.808 1.97-1.97-7.808-7.808 7.808-7.808z"/></symbol></symbol></symbol></defs></svg>