<svg aria-hidden="true" style="position: absolute; width: 0; height: 0; overflow: hidden;" version="1.1" xmlns="http://www.w3.org/2000/svg" xmlns:xlink="http://www.w3.org/1999/xlink">
<defs>
<symbol id="icon-vector" viewBox="0 0 26 32">
<path stroke-linejoin="round" stroke-linecap="round" stroke-miterlimit="4" stroke-width="6.4" d="M3.542 3.2l16.826 12.8-16.826 12.8"></path>
</symbol>
<symbol id="icon-burger" viewBox="0 0 46 32">
<path stroke-linejoin="miter" stroke-linecap="butt" stroke-miterlimit="4" stroke-width="2.2857" d="M0 2.286h45.714M0 16h45.714M0 29.714h45.714"></path>
</symbol>
<symbol id="icon-close" viewBox="0 0 32 32">
<path stroke-linejoin="miter" stroke-linecap="butt" stroke-miterlimit="4" stroke-width="2" d="M2.518 2l26.963 28"></path>
<path stroke-linejoin="miter" stroke-linecap="butt" stroke-miterlimit="4" stroke-width="2" d="M2 29.481l28-26.963"></path>
</symbol>
<symbol id="icon-arrow-right" viewBox="0 0 32 32">
<path d="M8 16c0-0.552 0.448-1 1-1v0h11.586l-4.294-4.292c-0.181-0.181-0.293-0.431-0.293-0.708 0-0.553 0.448-1.001 1.001-1.001 0.276 0 0.527 0.112 0.708 0.293v0l6 6c0.181 0.181 0.294 0.431 0.294 0.708s-0.112 0.527-0.294 0.708l-6 6c-0.181 0.181-0.431 0.293-0.708 0.293-0.553 0-1.001-0.448-1.001-1.001 0-0.276 0.112-0.527 0.293-0.708v0l4.294-4.292h-11.586c-0.552 0-1-0.448-1-1v0z"></path>
</symbol>
<symbol id="icon-arrow-right2" viewBox="0 0 32 32">
<path d="M19.414 27.414l10-10c0.781-0.781 0.781-2.047 0-2.828l-10-10c-0.781-0.781-2.047-0.781-2.828 0s-0.781 2.047 0 2.828l6.586 6.586h-19.172c-1.105 0-2 0.895-2 2s0.895 2 2 2h19.172l-6.586 6.586c-0.39 0.39-0.586 0.902-0.586 1.414s0.195 1.024 0.586 1.414c0.781 0.781 2.047 0.781 2.828 0z"></path>
</symbol>
<symbol id="icon-Group_products" viewBox="0 0 139 32">
<path fill="#fff" style="fill: var(--color1, #fff)" d="M85.333 16c0 8.837-7.163 16-16 16s-16-7.163-16-16c0-8.837 7.163-16 16-16s16 7.163 16 16z"></path>
<path fill="#fff" style="fill: var(--color1, #fff)" d="M32 16c0 8.837-7.163 16-16 16s-16-7.163-16-16c0-8.837 7.163-16 16-16s16 7.163 16 16z"></path>
<path fill="#fff" style="fill: var(--color1, #fff)" d="M138.667 16c0 8.837-7.163 16-16 16s-16-7.163-16-16c0-8.837 7.163-16 16-16s16 7.163 16 16z"></path>
</symbol>
<symbol id="icon-house-1" viewBox="0 0 32 32">
<path fill="#d31342" style="fill: var(--color1, #d31342)" d="M31.6 16.765c0.246-0.246 0.399-0.586 0.399-0.962 0-0.435-0.204-0.822-0.521-1.070l-0.003-0.002-14.301-11.675c-0.314-0.243-0.713-0.389-1.146-0.389-0.448 0-0.86 0.157-1.183 0.419l0.004-0.003-14.349 12.267c-0.306 0.249-0.5 0.626-0.5 1.049 0 0.39 0.166 0.741 0.43 0.988l0.001 0.001 0.36 0.347c0.595 0.581 1.56 0.651 2.152 0.155l1.072-0.896v13.117c0 0.803 0.701 1.456 1.563 1.456h5.592c0.864 0 1.563-0.653 1.563-1.456v-9.176h7.133v9.173c-0 0.011-0 0.023-0 0.035 0 0.785 0.636 1.421 1.421 1.421 0.016 0 0.032-0 0.048-0.001l-0.002 0h5.928c0.861 0 1.56-0.651 1.56-1.456v-12.928s0.299 0.24 0.664 0.541c0.363 0.299 1.131 0.059 1.709-0.536l0.408-0.419z"></path>
</symbol>
<symbol id="icon-dots" viewBox="0 0 256 32">
<path fill="#c7133e" style="fill: var(--color1, #c7133e)" d="M144 16c0 8.837-7.163 16-16 16s-16-7.163-16-16c0-8.837 7.163-16 16-16s16 7.163 16 16z"></path>
<path fill="#c7133e" style="fill: var(--color1, #c7133e)" d="M32 16c0 8.837-7.163 16-16 16s-16-7.163-16-16c0-8.837 7.163-16 16-16s16 7.163 16 16z"></path>
<path fill="#c7133e" style="fill: var(--color1, #c7133e)" d="M256 16c0 8.837-7.163 16-16 16s-16-7.163-16-16c0-8.837 7.163-16 16-16s16 7.163 16 16z"></path>
</symbol>

<symbol id="icon-github" viewBox="0 0 32 32">
<path d="M32 16c0 8.837-7.163 16-16 16s-16-7.163-16-16c0-8.837 7.163-16 16-16s16 7.163 16 16z"></path>
<path fill="#fff" style="fill: var(--color2, #fff)" d="M16 6.588c-5.169 0-9.412 4.242-9.412 9.412 0 4.411 3.095 8.418 7.206 9.412v-3.114c-0.407 0.089-0.782 0.092-1.197-0.030-0.556-0.164-1.008-0.535-1.344-1.1-0.214-0.361-0.593-0.752-0.988-0.723l-0.097-1.099c0.855-0.073 1.595 0.521 2.034 1.259 0.195 0.328 0.419 0.52 0.708 0.605 0.278 0.082 0.577 0.043 0.926-0.080 0.088-0.698 0.407-0.959 0.648-1.326v-0c-2.451-0.366-3.428-1.666-3.816-2.693-0.514-1.363-0.238-3.066 0.671-4.142 0.018-0.021 0.050-0.076 0.037-0.114-0.417-1.258 0.091-2.3 0.11-2.41 0.481 0.142 0.559-0.143 2.088 0.786l0.264 0.159c0.111 0.066 0.076 0.028 0.186 0.020 0.639-0.174 1.312-0.269 1.975-0.278 0.668 0.009 1.337 0.104 2.002 0.285l0.086 0.009c-0.007-0.001 0.023-0.005 0.075-0.036 1.911-1.157 1.842-0.779 2.354-0.946 0.018 0.111 0.519 1.169 0.107 2.411-0.056 0.171 1.657 1.739 0.707 4.256-0.388 1.027-1.365 2.328-3.816 2.693v0c0.314 0.479 0.692 0.734 0.69 1.722v3.887c4.111-0.993 7.206-5 7.206-9.412 0-5.169-4.242-9.412-9.412-9.412v0z"></path>
</symbol>
<symbol id="icon-telegram" viewBox="0 0 33 32">
<path d="M32.235 16c0 8.837-7.163 16-16 16s-16-7.163-16-16c0-8.837 7.163-16 16-16s16 7.163 16 16z"></path>
<path fill="#fff" style="fill: var(--color2, #fff)" d="M13.102 18.375l-0.318 4.169c0.454 0 0.651-0.182 0.887-0.401l2.13-1.9 4.414 3.017c0.81 0.421 1.38 0.199 1.598-0.695l2.898-12.673c0.257-1.117-0.433-1.554-1.222-1.28l-17.032 6.086c-1.162 0.421-1.145 1.026-0.198 1.3l4.355 1.264 10.115-5.907c0.476-0.294 0.909-0.131 0.553 0.163l-8.182 6.857z"></path>
</symbol>
<symbol id="icon-facebook" viewBox="0 0 33 32">
<path d="M16.471 32c8.837 0 16-7.163 16-16s-7.163-16-16-16c-8.837 0-16 7.163-16 16s7.163 16 16 16z"></path>
<path fill="#fff" style="fill: var(--color2, #fff)" d="M20.916 15.981h-2.61v9.618h-3.955v-9.618h-1.881v-3.38h1.881v-2.188c0-1.564 0.739-4.014 3.99-4.014l2.929 0.012v3.281h-2.125c-0.349 0-0.839 0.175-0.839 0.921v1.989h2.955l-0.346 3.377z"></path>

<symbol id="icon-burger-1" viewBox="0 0 46 32">
<path fill="none" stroke="#d41443" style="stroke: var(--color1, #d41443)" stroke-linejoin="miter" stroke-linecap="butt" stroke-miterlimit="4" stroke-width="2.2857" d="M0 2.286h45.714M0 16h45.714M0 29.714h45.714"></path>
</symbol>
<symbol id="icon-close-1" viewBox="0 0 32 32">
<path fill="none" stroke="#fff" style="stroke: var(--color1, #fff)" stroke-linejoin="miter" stroke-linecap="butt" stroke-miterlimit="4" stroke-width="2" d="M2.518 2l26.963 28"></path>
<path fill="none" stroke="#fff" style="stroke: var(--color1, #fff)" stroke-linejoin="miter" stroke-linecap="butt" stroke-miterlimit="4" stroke-width="2" d="M2 29.481l28-26.963"></path>

</symbol>

<symbol id="icon-close-2" viewBox="0 0 32 32">
<path fill="none" stroke="#fff" style="stroke: var(--color1, #d41443)" stroke-linejoin="miter" stroke-linecap="butt" stroke-miterlimit="4" stroke-width="2" d="M2.518 2l26.963 28"></path>
<path fill="none" stroke="#fff" style="stroke: var(--color1, #d41443)" stroke-linejoin="miter" stroke-linecap="butt" stroke-miterlimit="4" stroke-width="2" d="M2 29.481l28-26.963"></path>
</symbol>

<symbol id="icon-chevron-right" viewBox="0 0 32 32">
<path  d="M9.292 3.292c0.181-0.181 0.431-0.294 0.708-0.294s0.527 0.112 0.708 0.294l12 12c0.181 0.181 0.294 0.431 0.294 0.708s-0.112 0.527-0.294 0.708l-12 12c-0.181 0.181-0.431 0.293-0.708 0.293-0.553 0-1.001-0.448-1.001-1.001 0-0.276 0.112-0.527 0.293-0.708v0l11.294-11.292-11.294-11.292c-0.181-0.181-0.294-0.431-0.294-0.708s0.112-0.527 0.294-0.708l0-0z"></path>
</symbol>

<symbol id="icon-right-arrow" viewBox="0 0 32 32">
<path d="M8.76 24.38l8.38-8.38-8.38-8.38 3.060-3.040 11.42 11.42-11.42 11.42-3.060-3.040z"></path>
</symbol>


<symbol id="icon-close-btn" viewBox="0 0 32 32">
<path d="M26.667 7.303l-1.97-1.97-7.808 7.808-7.808-7.808-1.97 1.97 7.808 7.808-7.808 7.808 1.97 1.97 7.808-7.808 7.808 7.808 1.97-1.97-7.808-7.808 7.808-7.808z"></path>
</symbol>

<symbol id="icon-arrow-r" viewBox="0 0 32 32">
<path  d="M24.291 14.276l-9.586-9.586c-0.41-0.407-0.974-0.659-1.598-0.659s-1.188 0.252-1.598 0.659l-0.8 0.8c-0.407 0.41-0.658 0.974-0.658 1.597s0.252 1.187 0.659 1.597l7.314 7.316-7.315 7.315c-0.407 0.41-0.658 0.974-0.658 1.597s0.252 1.187 0.659 1.597l0.8 0.8c0.409 0.407 0.974 0.659 1.598 0.659s1.188-0.252 1.598-0.659l9.586-9.587c0.403-0.405 0.652-0.963 0.652-1.579 0-0.050-0.002-0.101-0.005-0.15l0 0.007c0.003-0.043 0.005-0.094 0.005-0.145 0-0.616-0.249-1.173-0.651-1.578l0 0z"></path>
</symbol>
<symbol id="icon-buy-buying" viewBox="0 0 32 32">
<path fill="#ff5741" style="fill: var(--color1, #ff5741)" d="M29.212 24.231h-26.425c-1.381 0-2.5-1.119-2.5-2.5v-13.756c0-1.381 1.119-2.5 2.5-2.5h26.431c1.381 0 2.5 1.119 2.5 2.5v13.756c-0.006 1.381-1.125 2.5-2.506 2.5z"></path>
<path fill="#ff908a" style="fill: var(--color2, #ff908a)" d="M1.863 21.731v-13.756c0-1.381 1.119-2.5 2.5-2.5h-1.575c-1.381 0-2.5 1.119-2.5 2.5v13.756c0 1.381 1.119 2.5 2.5 2.5h1.581c-1.388 0-2.506-1.119-2.506-2.5z"></path>
<path fill="#f9c04a" style="fill: var(--color3, #f9c04a)" d="M2.819 20.606v-11.506c0-0.606 0.487-1.094 1.094-1.094h24.181c0.606 0 1.094 0.488 1.094 1.094v11.506c0 0.606-0.488 1.094-1.094 1.094h-24.181c-0.606 0-1.094-0.488-1.094-1.094z"></path>
<path fill="#ffda9f" style="fill: var(--color4, #ffda9f)" d="M4.394 20.606v-11.506c0-0.606 0.487-1.094 1.094-1.094h-1.575c-0.606 0-1.094 0.488-1.094 1.094v11.506c0 0.606 0.487 1.094 1.094 1.094h1.581c-0.606 0-1.1-0.488-1.1-1.094z"></path>
<path fill="#133260" style="fill: var(--color5, #133260)" d="M8.644 11.675c0-0.169 0.15-0.25 0.3-0.25h1.625c1.113 0 2.025 0.287 2.025 1.688 0 0.831-0.338 1.419-0.844 1.637 0.606 0.25 1.025 0.694 1.025 1.706v0.181c0 1.506-0.863 2.044-1.963 2.044h-1.863c-0.188 0-0.3-0.119-0.3-0.25v-6.756zM9.287 14.463h1.3c0.912 0 1.35-0.338 1.35-1.281 0-0.912-0.575-1.15-1.387-1.15h-1.262v2.431zM10.725 18.075c0.863 0 1.387-0.444 1.387-1.469v-0.169c0-1.031-0.525-1.406-1.387-1.406h-1.438v3.044h1.438z"></path>
<path fill="#133260" style="fill: var(--color5, #133260)" d="M17.462 11.669c0-0.169 0.156-0.238 0.325-0.238 0.156 0 0.325 0.069 0.325 0.238v4.95c0 1.55-0.925 2.125-2.081 2.125-1.169 0-2.081-0.575-2.081-2.125v-4.95c0-0.169 0.169-0.238 0.325-0.238 0.169 0 0.325 0.069 0.325 0.238v4.95c0 1.031 0.537 1.519 1.431 1.519s1.431-0.488 1.431-1.519v-4.95z"></path>
<path fill="#133260" style="fill: var(--color5, #133260)" d="M21.144 15.906c0-0.031 0-0.050-0.012-0.081l-2.056-3.938c-0.038-0.069-0.050-0.137-0.050-0.181 0-0.169 0.2-0.275 0.356-0.275 0.106 0 0.188 0.063 0.256 0.2l1.825 3.619 1.837-3.619c0.069-0.137 0.156-0.2 0.256-0.2 0.156 0 0.356 0.106 0.356 0.275 0 0.037-0.012 0.106-0.038 0.181l-2.063 3.938c-0.012 0.031-0.019 0.050-0.019 0.081v2.519c0 0.169-0.156 0.256-0.325 0.256-0.156 0-0.325-0.087-0.325-0.256v-2.519z"></path>
<path fill="#43527a" style="fill: var(--color6, #43527a)" d="M31.344 18.863l-4.706-2.387c-0.363-0.188-0.806 0.006-0.925 0.4l-1.488 5.063c-0.156 0.531 0.381 1.006 0.887 0.788l1.756-0.756 1.775 4.106c0.169 0.381 0.613 0.563 0.994 0.394l1.294-0.556c0.381-0.169 0.563-0.613 0.394-0.994l-1.775-4.106 1.756-0.756c0.512-0.231 0.531-0.944 0.038-1.194z"></path>
<path fill="#5e7296" style="fill: var(--color7, #5e7296)" d="M27.456 16.887l-0.819-0.413c-0.363-0.188-0.806 0.006-0.925 0.4l-1.488 5.063c-0.156 0.531 0.381 1.006 0.887 0.788l0.719-0.313 1.625-5.525z"></path>
<path fill="#5e7296" style="fill: var(--color7, #5e7296)" d="M27.337 21.75l-0.462 0.212 1.775 4.106c0.169 0.381 0.613 0.563 0.994 0.394l0.531-0.231-1.931-4.156c-0.163-0.337-0.569-0.481-0.906-0.325z"></path>
<path fill="#133260" style="fill: var(--color5, #133260)" d="M32 21.731v-13.756c0-1.537-1.25-2.787-2.788-2.787h-26.425c-1.538 0-2.788 1.25-2.788 2.787v13.756c0 1.538 1.25 2.788 2.788 2.788h24.881l0.719 1.663c0.113 0.256 0.313 0.45 0.575 0.556 0.125 0.050 0.256 0.075 0.381 0.075 0.137 0 0.281-0.031 0.413-0.087l1.294-0.556c0.256-0.113 0.45-0.313 0.556-0.575 0.1-0.256 0.1-0.544-0.012-0.8l-0.45-1.050c0.544-0.519 0.856-1.244 0.856-2.012zM2.788 23.95c-1.219 0-2.212-0.994-2.212-2.212v-13.762c-0.006-1.225 0.988-2.219 2.212-2.219h26.431c1.219 0 2.212 0.994 2.212 2.213v10.613l-1.962-0.994v-8.488c0-0.762-0.619-1.381-1.381-1.381h-24.175c-0.763 0-1.381 0.619-1.381 1.381v11.506c0 0.762 0.619 1.381 1.381 1.381h20.012c-0.044 0.313 0.063 0.625 0.306 0.837 0.275 0.244 0.656 0.306 0.994 0.156l1.494-0.644 0.694 1.606h-24.625zM28.9 9.1v8.2l-2.131-1.081c-0.25-0.125-0.544-0.137-0.8-0.025s-0.45 0.331-0.531 0.6l-1.356 4.625h-20.169c-0.444 0-0.813-0.363-0.813-0.813v-11.506c0-0.444 0.362-0.813 0.813-0.813h24.181c0.444 0 0.806 0.369 0.806 0.813zM31.069 25.381c-0.044 0.119-0.137 0.212-0.25 0.262l-1.294 0.556c-0.119 0.050-0.244 0.050-0.363 0.006s-0.212-0.137-0.262-0.25l-0.794-1.831c0 0 0 0 0 0l-0.981-2.269c-0.031-0.069-0.087-0.125-0.156-0.15-0.031-0.012-0.069-0.019-0.106-0.019s-0.075 0.006-0.113 0.025l-1.756 0.756c-0.137 0.056-0.281 0.038-0.394-0.063s-0.15-0.238-0.113-0.381l0.069-0.231c0 0 0-0.006 0-0.006l1.413-4.825c0.031-0.106 0.106-0.194 0.206-0.238s0.219-0.038 0.313 0.012l2.544 1.288c0 0 0.006 0 0.006 0.006l2.156 1.094c0.131 0.069 0.206 0.194 0.2 0.344s-0.087 0.269-0.225 0.331l-1.731 0.744c-0.069 0.031-0.125 0.087-0.15 0.156s-0.025 0.15 0.006 0.219l1.238 2.863c0 0 0 0.006 0 0.006l0.531 1.231c0.056 0.119 0.056 0.25 0.006 0.363zM30.894 23.181l-0.962-2.231 1.494-0.644c0.006 0 0.006 0 0.012-0.006v1.431c-0.006 0.538-0.2 1.050-0.544 1.45z"></path>
</symbol>

</defs>
</svg>
